<svg width="12" height="12" viewBox="0 0 12 12" fill="none" xmlns="http://www.w3.org/2000/svg">
<g clip-path="url(#clip0_0_761)">
<path d="M10.875 12C10.775 12 10.675 11.95 10.6 11.9L6 7.25L1.4 11.9C1.3 12 1.125 12.05 1 11.975C0.85 11.925 0.75 11.775 0.75 11.625V0.375C0.75 0.175 0.925 0 1.125 0H10.875C11.075 0 11.25 0.175 11.25 0.375V11.625C11.25 11.775 11.15 11.925 11.025 11.975C10.975 12 10.925 12 10.875 12ZM6 6.5C6.2 6.5 6.4 6.575 6.55 6.725L10.5 10.725V0.75H1.5V10.725L5.45 6.725C5.6 6.575 5.8 6.5 6 6.5Z" fill="#8E8E8E"/>
</g>
<defs>
<clipPath id="clip0_0_761">
<rect width="12" height="12" fill="white"/>
</clipPath>
</defs>
</svg>
