<svg width="24" height="25" viewBox="0 0 24 25" fill="none" xmlns="http://www.w3.org/2000/svg">
<g id="Icons/Emoji" clip-path="url(#clip0_622_1514)">
<path id="Vector" d="M12 24.1549C5.4 24.1549 0 18.7549 0 12.1549C0 5.55491 5.4 0.154907 12 0.154907C18.6 0.154907 24 5.55491 24 12.1549C24 18.7549 18.6 24.1549 12 24.1549ZM12 1.65491C6.2 1.65491 1.5 6.35491 1.5 12.1549C1.5 17.9549 6.2 22.6549 12 22.6549C17.8 22.6549 22.5 17.9549 22.5 12.1549C22.5 6.35491 17.8 1.65491 12 1.65491Z" fill="#262626"/>
<path id="Vector_2" d="M17.45 12.1549C17.45 11.4549 16.9 10.9049 16.2 10.9049C15.5 10.9049 14.95 11.4549 14.95 12.1549C14.95 12.8549 15.5 13.4049 16.2 13.4049C16.9 13.4049 17.45 12.8549 17.45 12.1549ZM6.55 12.1549C6.55 11.4549 7.1 10.9049 7.8 10.9049C8.5 10.9049 9.04999 11.4549 9.04999 12.1549C9.04999 12.8549 8.5 13.4049 7.8 13.4049C7.1 13.4049 6.55 12.8549 6.55 12.1549ZM12 18.8049C9.39999 18.8049 8 17.0549 7.9 16.9549C7.65 16.6549 7.7 16.1549 7.99999 15.9049C8.29999 15.6549 8.79999 15.7049 9.04999 16.0049C9.09999 16.0549 10.1 17.2549 11.95 17.2549C13.8 17.2549 14.85 16.0049 14.85 16.0049C15.1 15.7049 15.6 15.6549 15.9 15.9049C16.2 16.1549 16.25 16.6549 16 16.9549C16 17.0549 14.6 18.8049 12 18.8049Z" fill="#262626"/>
</g>
<defs>
<clipPath id="clip0_622_1514">
<rect width="24" height="24" fill="white" transform="translate(0 0.154907)"/>
</clipPath>
</defs>
</svg>
