<svg width="24" height="24" viewBox="0 0 24 24" fill="none" xmlns="http://www.w3.org/2000/svg">
<g clip-path="url(#clip0_0_1911)">
<path d="M23.9 1.9C23.75 1.65 23.5 1.5 23.25 1.5H0.75C0.45 1.55 0.15 1.75 0.05 2C-0.05 2.25 0 2.6 0.2 2.85L8.15 10.65L10.9 21.95C10.95 22.25 11.2 22.45 11.5 22.5H11.6C11.85 22.5 12.1 22.35 12.25 22.15L23.85 2.65C24.05 2.45 24.05 2.15 23.9 1.9ZM2.6 3.05H20.35L9 9.35L2.6 3.05ZM11.95 19.85L9.75 10.65L21.2 4.3L11.95 19.85Z" fill="#262626"/>
</g>
<defs>
<clipPath id="clip0_0_1911">
<rect width="24" height="24" fill="white"/>
</clipPath>
</defs>
</svg>
