<svg width="22" height="22" viewBox="0 0 22 22" fill="none" xmlns="http://www.w3.org/2000/svg">
<g clip-path="url(#clip0_2_52)">
<path fill-rule="evenodd" clip-rule="evenodd" d="M4.67504 13.6583C4.35421 14.1167 4.95004 14.6667 5.40837 14.3458L8.75421 11.825C8.98337 11.6417 9.30421 11.6417 9.53337 11.825L12.0084 13.6583C12.7417 14.2083 13.7959 14.025 14.3 13.2458L17.4167 8.34166C17.7375 7.88333 17.1417 7.33333 16.6834 7.65416L13.2917 10.175C13.0625 10.3583 12.7417 10.3583 12.5125 10.175L10.0375 8.34166C9.30421 7.79166 8.25004 7.975 7.74587 8.75416L4.67504 13.6583ZM11 0.458328C16.9584 0.458328 21.5417 4.81249 21.5417 10.6792C21.5417 16.5458 16.9584 20.9 11 20.9C9.94587 20.9 8.89171 20.7625 7.92921 20.4875C7.74587 20.4417 7.56254 20.4417 7.37921 20.5333L5.27087 21.45C4.76671 21.725 4.12504 21.3125 4.12504 20.7167L4.07921 18.8375C4.07921 18.6083 3.98754 18.3792 3.80421 18.2417C1.69587 16.4083 0.458374 13.75 0.458374 10.6792C0.458374 4.81249 5.04171 0.458328 11 0.458328Z" fill="#262626"/>
</g>
<defs>
<clipPath id="clip0_2_52">
<rect width="22" height="22" fill="white"/>
</clipPath>
</defs>
</svg>
