<svg width="12" height="12" viewBox="0 0 12 12" fill="none" xmlns="http://www.w3.org/2000/svg">
<g clip-path="url(#clip0_0_2487)">
<path d="M7.875 7.05L5.075 5.425C4.95 5.35 4.825 5.35 4.7 5.425C4.575 5.475 4.5 5.6 4.5 5.75V9C4.5 9.125 4.575 9.25 4.7 9.325C4.75 9.35 4.825 9.375 4.875 9.375C4.95 9.375 5 9.35 5.075 9.325L7.875 7.7C8 7.625 8.05 7.5 8.05 7.375C8.05 7.25 7.975 7.125 7.875 7.05ZM10.975 1C10.35 0.4 9.6 0 7.925 0H4.05C2.4 0 1.65 0.4 1 1.025C0.4 1.65 0 2.4 0 4.05V7.925C0 9.575 0.4 10.35 1.025 10.975C1.65 11.575 2.4 11.975 4.075 11.975H7.95C9.6 11.975 10.375 11.575 11 10.95C11.6 10.325 12 9.575 12 7.9V4.05C12 2.4 11.6 1.65 10.975 1ZM7.95 0.75C9.525 0.75 10.05 1.15 10.45 1.55C10.75 1.85 11.025 2.225 11.175 3H8.85L7.575 0.75H7.95ZM4.05 0.75H6.675L7.95 3H4.95L3.675 0.75H4.05ZM1.55 1.55C1.825 1.275 2.175 1 2.875 0.85L4.1 3H0.825C0.975 2.225 1.25 1.85 1.55 1.55ZM11.25 7.95C11.25 9.525 10.85 10.05 10.45 10.45C10.05 10.85 9.5 11.25 7.95 11.25H4.05C2.475 11.25 1.95 10.85 1.55 10.45C1.15 10.05 0.75 9.5 0.75 7.95V3.75H11.25V7.95Z" fill="#8E8E8E"/>
</g>
<defs>
<clipPath id="clip0_0_2487">
<rect width="12" height="12" fill="white"/>
</clipPath>
</defs>
</svg>
