<svg width="12" height="12" viewBox="0 0 12 12" fill="none" xmlns="http://www.w3.org/2000/svg">
<g clip-path="url(#clip0_0_2507)">
<path d="M10.375 1.375H7.6C7.475 1.375 7.35 1.325 7.25 1.225L6.25 0.225003C6.1 0.0750031 5.875 0.0750031 5.725 0.225003L4.725 1.225C4.625 1.325 4.5 1.375 4.375 1.375H1.625C0.8 1.375 0.125 2.05 0.125 2.875V10.375C0.125 11.2 0.8 11.875 1.625 11.875H10.375C11.2 11.875 11.875 11.2 11.875 10.375V2.875C11.875 2.05 11.2 1.375 10.375 1.375ZM3.025 11.125C2.875 11.125 2.75 10.975 2.775 10.825C2.95 10.025 3.65 9.425 4.475 9.425H7.475C8.325 9.425 9.025 10.025 9.175 10.825C9.2 10.975 9.075 11.125 8.925 11.125H3.025ZM11.125 10.375C11.125 10.8 10.8 11.125 10.375 11.125H10.225C10.1 11.125 10 11.025 9.975 10.9C9.825 9.65 8.775 8.675 7.5 8.675H4.5C3.225 8.675 2.15 9.65 2.025 10.9C2 11.025 1.9 11.125 1.775 11.125H1.625C1.2 11.125 0.875 10.8 0.875 10.375V2.875C0.875 2.45 1.2 2.125 1.625 2.125H4.4C4.725 2.125 5.05 2 5.275 1.75L6 1.025L6.725 1.75C6.95 1.975 7.275 2.125 7.6 2.125H10.375C10.8 2.125 11.125 2.45 11.125 2.875V10.375ZM6 3.125C4.675 3.125 3.6 4.2 3.6 5.525C3.6 6.85 4.675 7.925 6 7.925C7.325 7.925 8.4 6.85 8.4 5.525C8.4 4.2 7.325 3.125 6 3.125ZM6 7.15C5.1 7.15 4.35 6.425 4.35 5.5C4.35 4.6 5.075 3.85 6 3.85C6.925 3.85 7.65 4.575 7.65 5.5C7.65 6.4 6.9 7.15 6 7.15Z" fill="#8E8E8E"/>
</g>
<defs>
<clipPath id="clip0_0_2507">
<rect width="12" height="12" fill="white"/>
</clipPath>
</defs>
</svg>
