<svg width="12" height="18" viewBox="0 0 12 18" fill="none" xmlns="http://www.w3.org/2000/svg">
<g clip-path="url(#clip0_0_2495)">
<path d="M6 3C2.7 3 0 5.7 0 9C0 12.3 2.7 15 6 15C9.3 15 12 12.3 12 9C12 5.7 9.3 3 6 3ZM6 14.25C3.1 14.25 0.75 11.9 0.75 9C0.75 6.1 3.1 3.75 6 3.75C8.9 3.75 11.25 6.1 11.25 9C11.25 11.9 8.9 14.25 6 14.25ZM8.5 8.35L5.1 6.4C4.85 6.25 4.6 6.25 4.35 6.4C4.15 6.55 4 6.75 4 7.05V10.95C4 11.2 4.15 11.45 4.4 11.6C4.5 11.65 4.65 11.7 4.8 11.7C4.95 11.7 5.05 11.65 5.2 11.6L8.6 9.65C8.85 9.5 9 9.25 9 9C9 8.75 8.75 8.5 8.5 8.35ZM4.75 10.95V7.05L8.15 9L4.75 10.95Z" fill="#8E8E8E"/>
</g>
<defs>
<clipPath id="clip0_0_2495">
<rect width="12" height="12" fill="white" transform="translate(0 3)"/>
</clipPath>
</defs>
</svg>
