<svg width="22" height="22" viewBox="0 0 22 22" fill="none" xmlns="http://www.w3.org/2000/svg">
<g clip-path="url(#clip0_2_53)">
<path d="M14.575 22H7.425C4.4 22 3.025 21.2667 1.87917 20.1667C0.733333 18.975 0 17.6 0 14.575V7.425C0 4.4 0.733333 3.025 1.83333 1.87917C3.025 0.733333 4.4 0 7.425 0H14.575C17.6 0 18.975 0.733333 20.1208 1.83333C21.2667 3.025 22 4.4 22 7.425V14.575C22 17.6 21.2667 18.975 20.1667 20.1208C18.975 21.2667 17.6 22 14.575 22ZM7.425 1.375C4.58333 1.375 3.575 2.10833 2.79583 2.84167C2.10833 3.575 1.375 4.58333 1.375 7.425V14.575C1.375 17.4167 2.10833 18.425 2.84167 19.2042C3.575 19.9375 4.58333 20.625 7.425 20.625H14.575C17.4167 20.625 18.425 19.8917 19.2042 19.1583C19.9375 18.425 20.625 17.4167 20.625 14.575V7.425C20.625 4.58333 19.8917 3.575 19.1583 2.79583C18.425 2.10833 17.4167 1.375 14.575 1.375H7.425Z" fill="#262626"/>
<path d="M16.6375 11.6875H5.36255C4.99588 11.6875 4.67505 11.3667 4.67505 11C4.67505 10.6333 4.99588 10.3125 5.36255 10.3125H16.6375C17.0042 10.3125 17.325 10.6333 17.325 11C17.325 11.3667 17.0042 11.6875 16.6375 11.6875Z" fill="#262626"/>
<path d="M11 17.325C10.6333 17.325 10.3125 17.0042 10.3125 16.6375V5.3625C10.3125 4.99584 10.6333 4.675 11 4.675C11.3667 4.675 11.6875 4.99584 11.6875 5.3625V16.6375C11.6875 17.0042 11.3667 17.325 11 17.325Z" fill="#262626"/>
</g>
<defs>
<clipPath id="clip0_2_53">
<rect width="22" height="22" fill="white"/>
</clipPath>
</defs>
</svg>
