<svg width="24" height="24" viewBox="0 0 24 24" fill="none" xmlns="http://www.w3.org/2000/svg">
<g clip-path="url(#clip0_0_2457)">
<path d="M18.3818 24.0654H4.63639C4.0257 24.072 3.41986 23.9566 2.85438 23.7259C2.2889 23.4952 1.77518 23.154 1.34334 22.7221C0.911495 22.2903 0.570231 21.7766 0.339559 21.2111C0.108886 20.6456 -0.00654955 20.0398 2.14126e-05 19.4291V5.68363C-0.00654955 5.07295 0.108886 4.4671 0.339559 3.90162C0.570231 3.33614 0.911495 2.82242 1.34334 2.39058C1.77518 1.95874 2.2889 1.61747 2.85438 1.3868C3.41986 1.15613 4.0257 1.04069 4.63639 1.04726H12.5455C12.7625 1.04726 12.9706 1.13346 13.124 1.2869C13.2775 1.44034 13.3637 1.64845 13.3637 1.86544C13.3637 2.08244 13.2775 2.29055 13.124 2.44399C12.9706 2.59742 12.7625 2.68363 12.5455 2.68363H4.63639C4.24141 2.67999 3.84966 2.7551 3.48404 2.90457C3.11842 3.05405 2.78625 3.27489 2.50695 3.55419C2.22765 3.8335 2.00681 4.16566 1.85733 4.53128C1.70786 4.8969 1.63274 5.28865 1.63639 5.68363V19.4291C1.63274 19.8241 1.70786 20.2158 1.85733 20.5814C2.00681 20.947 2.22765 21.2792 2.50695 21.5585C2.78625 21.8378 3.11842 22.0587 3.48404 22.2081C3.84966 22.3576 4.24141 22.4327 4.63639 22.4291H18.3818C18.7768 22.4327 19.1686 22.3576 19.5342 22.2081C19.8998 22.0587 20.232 21.8378 20.5113 21.5585C20.7906 21.2792 21.0114 20.947 21.1609 20.5814C21.3104 20.2158 21.3855 19.8241 21.3818 19.4291V11.52C21.3818 11.303 21.468 11.0949 21.6215 10.9414C21.7749 10.788 21.983 10.7018 22.2 10.7018C22.417 10.7018 22.6251 10.788 22.7786 10.9414C22.932 11.0949 23.0182 11.303 23.0182 11.52V19.4291C23.0248 20.0398 22.9093 20.6456 22.6787 21.2111C22.448 21.7766 22.1067 22.2903 21.6749 22.7221C21.243 23.154 20.7293 23.4952 20.1638 23.7259C19.5984 23.9566 18.9925 24.072 18.3818 24.0654Z" fill="#262626"/>
<path d="M9.54548 18.9924H5.89094C5.67394 18.9924 5.46583 18.9062 5.31239 18.7527C5.15895 18.5993 5.07275 18.3912 5.07275 18.1742V14.5196C5.07294 14.3027 5.15927 14.0947 5.31275 13.9415L18.6 0.686912C19.0535 0.243807 19.6624 -0.00427246 20.2964 -0.00427246C20.9304 -0.00427246 21.5393 0.243807 21.9928 0.686912L23.3564 2.05055C23.7995 2.50403 24.0476 3.11289 24.0476 3.74691C24.0476 4.38094 23.7995 4.98979 23.3564 5.44327L10.1018 18.7524C9.95394 18.9006 9.75482 18.9865 9.54548 18.9924ZM6.70912 17.356H9.2073L22.2218 4.26509C22.3619 4.11803 22.44 3.92273 22.44 3.71964C22.44 3.51655 22.3619 3.32125 22.2218 3.17418L20.8582 1.81055C20.7111 1.67049 20.5158 1.59237 20.3128 1.59237C20.1097 1.59237 19.9144 1.67049 19.7673 1.81055L6.67639 14.8251L6.70912 17.356Z" fill="#262626"/>
<path d="M20.8363 7.64726C20.7252 7.64977 20.6148 7.62981 20.5117 7.58856C20.4086 7.54732 20.3149 7.48565 20.2363 7.40726L16.6581 3.82908C16.5135 3.67398 16.4349 3.46884 16.4386 3.25687C16.4423 3.04491 16.5282 2.84267 16.6781 2.69277C16.828 2.54286 17.0303 2.45699 17.2422 2.45325C17.4542 2.44951 17.6593 2.52819 17.8144 2.67272L21.4144 6.27272C21.491 6.34831 21.5517 6.43834 21.5932 6.53759C21.6346 6.63684 21.656 6.74333 21.656 6.8509C21.656 6.95846 21.6346 7.06495 21.5932 7.1642C21.5517 7.26345 21.491 7.35349 21.4144 7.42908C21.2573 7.57409 21.05 7.65233 20.8363 7.64726Z" fill="#262626"/>
</g>
<defs>
<clipPath id="clip0_0_2457">
<rect width="24" height="24" fill="white"/>
</clipPath>
</defs>
</svg>
