<svg width="28" height="28" viewBox="0 0 28 28" fill="none" xmlns="http://www.w3.org/2000/svg">
<g clip-path="url(#clip0_0_2523)">
<path d="M18.375 16.45L11.8417 12.6583C11.55 12.4833 11.2583 12.4833 10.9667 12.6583C10.675 12.775 10.5 13.0667 10.5 13.4167V21C10.5 21.2917 10.675 21.5833 10.9667 21.7583C11.0833 21.8167 11.2583 21.875 11.375 21.875C11.55 21.875 11.6667 21.8167 11.8417 21.7583L18.375 17.9667C18.6667 17.7917 18.7833 17.5 18.7833 17.2083C18.7833 16.9167 18.6083 16.625 18.375 16.45ZM25.6083 2.33333C24.15 0.933333 22.4 0 18.4917 0H9.45C5.6 0 3.85 0.933333 2.33333 2.39167C0.933333 3.85 0 5.6 0 9.45V18.4917C0 22.3417 0.933333 24.15 2.39167 25.6083C3.85 27.0083 5.6 27.9417 9.50833 27.9417H18.55C22.4 27.9417 24.2083 27.0083 25.6667 25.55C27.0667 24.0917 28 22.3417 28 18.4333V9.45C28 5.6 27.0667 3.85 25.6083 2.33333ZM18.55 1.75C22.225 1.75 23.45 2.68333 24.3833 3.61667C25.0833 4.31667 25.725 5.19167 26.075 7H20.65L17.675 1.75H18.55ZM9.45 1.75H15.575L18.55 7H11.55L8.575 1.75H9.45ZM3.61667 3.61667C4.25833 2.975 5.075 2.33333 6.70833 1.98333L9.56667 7H1.925C2.275 5.19167 2.91667 4.31667 3.61667 3.61667ZM26.25 18.55C26.25 22.225 25.3167 23.45 24.3833 24.3833C23.45 25.3167 22.1667 26.25 18.55 26.25H9.45C5.775 26.25 4.55 25.3167 3.61667 24.3833C2.68333 23.45 1.75 22.1667 1.75 18.55V8.75H26.25V18.55Z" fill="white"/>
</g>
<defs>
<clipPath id="clip0_0_2523">
<rect width="28" height="28" fill="white"/>
</clipPath>
</defs>
</svg>
