<svg width="12" height="12" viewBox="0 0 12 12" fill="none" xmlns="http://www.w3.org/2000/svg">
<g clip-path="url(#clip0_0_771)">
<path d="M10.375 1.37499H7.6C7.475 1.37499 7.35 1.32499 7.25 1.22499L6.25 0.224988C6.1 0.0749878 5.875 0.0749878 5.725 0.224988L4.725 1.22499C4.625 1.32499 4.5 1.37499 4.375 1.37499H1.625C0.8 1.37499 0.125 2.04999 0.125 2.87499V10.375C0.125 11.2 0.8 11.875 1.625 11.875H10.375C11.2 11.875 11.875 11.2 11.875 10.375V2.87499C11.875 2.04999 11.2 1.37499 10.375 1.37499ZM3.025 11.125C2.875 11.125 2.75 10.975 2.775 10.825C2.95 10.025 3.65 9.42499 4.475 9.42499H7.475C8.325 9.42499 9.025 10.025 9.175 10.825C9.2 10.975 9.075 11.125 8.925 11.125H3.025ZM11.125 10.375C11.125 10.8 10.8 11.125 10.375 11.125H10.225C10.1 11.125 10 11.025 9.975 10.9C9.825 9.64999 8.775 8.67499 7.5 8.67499H4.5C3.225 8.67499 2.15 9.64999 2.025 10.9C2 11.025 1.9 11.125 1.775 11.125H1.625C1.2 11.125 0.875 10.8 0.875 10.375V2.87499C0.875 2.44999 1.2 2.12499 1.625 2.12499H4.4C4.725 2.12499 5.05 1.99999 5.275 1.74999L6 1.02499L6.725 1.74999C6.95 1.97499 7.275 2.12499 7.6 2.12499H10.375C10.8 2.12499 11.125 2.44999 11.125 2.87499V10.375ZM6 3.12499C4.675 3.12499 3.6 4.19999 3.6 5.52499C3.6 6.84999 4.675 7.92499 6 7.92499C7.325 7.92499 8.4 6.84999 8.4 5.52499C8.4 4.19999 7.325 3.12499 6 3.12499ZM6 7.14999C5.1 7.14999 4.35 6.42499 4.35 5.49999C4.35 4.59999 5.075 3.84999 6 3.84999C6.925 3.84999 7.65 4.57499 7.65 5.49999C7.65 6.39999 6.9 7.14999 6 7.14999Z" fill="#8E8E8E"/>
</g>
<defs>
<clipPath id="clip0_0_771">
<rect width="12" height="12" fill="white"/>
</clipPath>
</defs>
</svg>
