<svg width="12" height="12" viewBox="0 0 12 12" fill="none" xmlns="http://www.w3.org/2000/svg">
<g clip-path="url(#clip0_0_2465)">
<path fill-rule="evenodd" clip-rule="evenodd" d="M11.25 0.375H0.75C0.55 0.375 0.375 0.55 0.375 0.75V11.25C0.375 11.45 0.55 11.625 0.75 11.625H11.25C11.45 11.625 11.625 11.45 11.625 11.25V0.75C11.625 0.55 11.45 0.375 11.25 0.375ZM1.125 1.125H3.875V3.875H1.125V1.125ZM1.125 4.625H3.875V7.375H1.125V4.625ZM3.875 10.875H1.125V8.125H3.875V10.875ZM7.375 10.875H4.625V8.125H7.375V10.875ZM7.375 7.375H4.625V4.625H7.375V7.375ZM7.375 3.875H4.625V1.125H7.375V3.875ZM10.875 10.875H8.125V8.125H10.875V10.875ZM10.875 7.375H8.125V4.625H10.875V7.375ZM10.875 3.875H8.125V1.125H10.875V3.875Z" fill="#262626"/>
</g>
<defs>
<clipPath id="clip0_0_2465">
<rect width="12" height="12" fill="white"/>
</clipPath>
</defs>
</svg>
