<svg width="22" height="22" viewBox="0 0 22 22" fill="none" xmlns="http://www.w3.org/2000/svg">
<g clip-path="url(#clip0_0_2291)">
<path d="M16.5916 7.65418L13.2916 10.175C13.0625 10.3583 12.7416 10.3583 12.5125 10.175L10.0375 8.34168C9.30415 7.79168 8.24998 7.97501 7.74581 8.75418L4.62915 13.6583C4.30831 14.1167 4.90415 14.6667 5.36248 14.3458L8.70831 11.825C8.93748 11.6417 9.25831 11.6417 9.48748 11.825L11.9625 13.6583C12.6958 14.2083 13.75 14.025 14.2541 13.2458L17.3708 8.34168C17.6458 7.83751 17.05 7.33334 16.5916 7.65418ZM11 0.458344C5.04165 0.458344 0.458313 4.81251 0.458313 10.6792C0.458313 13.75 1.69581 16.4083 3.75831 18.2417C3.94165 18.3792 4.03331 18.6083 4.03331 18.8375L4.12498 20.7167C4.12498 21.175 4.53748 21.5417 4.94998 21.5417C5.04165 21.5417 5.17915 21.5417 5.27081 21.45L7.37915 20.5333C7.47081 20.4875 7.60831 20.4417 7.69998 20.4417C7.79165 20.4417 7.83748 20.4417 7.92915 20.4875C8.89165 20.7625 9.89998 20.9 11 20.9C16.9583 20.9 21.5416 16.5458 21.5416 10.6792C21.5416 4.81251 16.9583 0.458344 11 0.458344ZM11 19.525C10.0833 19.525 9.16665 19.3875 8.29581 19.1583C8.11248 19.1125 7.92915 19.0667 7.69998 19.0667C7.37915 19.0667 7.10415 19.1125 6.78331 19.25L5.40831 19.8458V18.7917C5.40831 18.1958 5.13331 17.6458 4.67498 17.2333C2.84165 15.5833 1.83331 13.2458 1.83331 10.6792C1.83331 5.63751 5.77498 1.83334 11 1.83334C16.225 1.83334 20.1666 5.63751 20.1666 10.6792C20.1666 15.7208 16.225 19.525 11 19.525Z" fill="#262626"/>
</g>
<defs>
<clipPath id="clip0_0_2291">
<rect width="22" height="22" fill="white"/>
</clipPath>
</defs>
</svg>
