<svg width="10" height="10" viewBox="0 0 10 10" fill="none" xmlns="http://www.w3.org/2000/svg">
<path d="M4.16659 7.50001C4.90616 7.49986 5.62442 7.25227 6.207 6.79668L8.03867 8.62834L8.62784 8.03918L6.79617 6.20751C7.252 5.62487 7.49974 4.90644 7.49992 4.16668C7.49992 2.32876 6.0045 0.833344 4.16659 0.833344C2.32867 0.833344 0.833252 2.32876 0.833252 4.16668C0.833252 6.00459 2.32867 7.50001 4.16659 7.50001ZM4.16659 1.66668C5.54534 1.66668 6.66658 2.78793 6.66658 4.16668C6.66658 5.54543 5.54534 6.66668 4.16659 6.66668C2.78784 6.66668 1.66659 5.54543 1.66659 4.16668C1.66659 2.78793 2.78784 1.66668 4.16659 1.66668Z" fill="#8E8E8E"/>
</svg>
