<svg width="11" height="8" viewBox="0 0 11 8" fill="none" xmlns="http://www.w3.org/2000/svg">
<path d="M11 1.26147C11 0.555046 10.445 0 9.73853 0C9.03211 0 8.47706 0.555046 8.47706 1.26147C8.47706 1.96789 9.03211 2.52294 9.73853 2.52294C10.445 2.52294 11 1.96789 11 1.26147ZM0 1.26147C0 0.555046 0.555046 0 1.26147 0C1.96789 0 2.52294 0.555046 2.52294 1.26147C2.52294 1.96789 1.96789 2.52294 1.26147 2.52294C0.555046 2.52294 0 1.96789 0 1.26147ZM5.5 7.97248C2.87615 7.97248 1.4633 6.20642 1.36239 6.10551C1.11009 5.80275 1.16055 5.29817 1.4633 5.04587C1.76605 4.79358 2.27064 4.84404 2.52294 5.14679C2.57339 5.19725 3.58257 6.40826 5.44954 6.40826C7.31651 6.40826 8.37615 5.14679 8.37615 5.14679C8.62844 4.84404 9.13303 4.79358 9.43578 5.04587C9.73853 5.29817 9.78899 5.80275 9.5367 6.10551C9.5367 6.20642 8.12385 7.97248 5.5 7.97248Z" fill="#262626"/>
</svg>
