<svg width="12" height="12" viewBox="0 0 12 12" fill="none" xmlns="http://www.w3.org/2000/svg">
<g clip-path="url(#clip0_0_2286)">
<path d="M6 12H5.925L0.3 10.75C0.125 10.7 0 10.55 0 10.375V0.374991C0 0.249991 0.05 0.149991 0.15 0.0749908C0.25 -9.15676e-06 0.35 -0.0250092 0.45 -9.1549e-06L6.075 1.24999C6.25 1.29999 6.375 1.44999 6.375 1.62499V11.625C6.375 11.75 6.325 11.85 6.225 11.925C6.175 11.975 6.075 12 6 12ZM0.75 10.075L5.625 11.15V1.92499L0.75 0.849991V10.075Z" fill="#8E8E8E"/>
<path d="M6 12C5.925 12 5.825 11.975 5.775 11.925C5.675 11.85 5.625 11.75 5.625 11.625V1.62499C5.625 1.44999 5.75 1.29999 5.925 1.24999L11.55 -9.1549e-06C11.65 -0.0250092 11.775 -9.15676e-06 11.875 0.0749908C11.95 0.149991 12 0.249991 12 0.374991V10.375C12 10.55 11.875 10.7 11.7 10.75L6.075 12H6ZM6.375 1.92499V11.15L11.25 10.075V0.849991L6.375 1.92499Z" fill="#8E8E8E"/>
<path d="M7.625 9.70001C7.45 9.70001 7.3 9.57501 7.25 9.40001C7.2 9.20001 7.325 9.00001 7.525 8.95001L9.9 8.42501C10.1 8.37501 10.3 8.50001 10.35 8.70001C10.4 8.90001 10.275 9.10001 10.075 9.15001L7.7 9.67501C7.675 9.70001 7.65 9.70001 7.625 9.70001ZM4.375 9.70001H4.3L1.925 9.17501C1.725 9.12501 1.6 8.92501 1.65 8.72501C1.7 8.52501 1.9 8.40001 2.1 8.45001L4.475 8.97501C4.675 9.02501 4.8 9.22501 4.75 9.42501C4.7 9.57501 4.55 9.70001 4.375 9.70001ZM4.375 6.20001H4.3L1.925 5.67501C1.75 5.62501 1.625 5.47501 1.625 5.30001V2.67501C1.625 2.55001 1.675 2.45001 1.775 2.37501C1.875 2.30001 1.975 2.27501 2.1 2.30001L4.475 2.82501C4.65 2.87501 4.775 3.02501 4.775 3.20001V5.82501C4.775 5.95001 4.725 6.05001 4.625 6.12501C4.55 6.17501 4.45 6.20001 4.375 6.20001ZM2.375 5.00001L4 5.35001V3.50001L2.375 3.15001V5.00001ZM7.625 6.20001C7.55 6.20001 7.45 6.17501 7.4 6.12501C7.3 6.05001 7.25 5.95001 7.25 5.82501V3.20001C7.25 3.02501 7.375 2.87501 7.55 2.82501L9.925 2.30001C10.025 2.27501 10.15 2.30001 10.25 2.37501C10.35 2.45001 10.4 2.55001 10.4 2.67501V5.30001C10.4 5.47501 10.275 5.62501 10.1 5.67501L7.725 6.20001H7.625ZM8 3.50001V5.35001L9.625 5.00001V3.15001L8 3.50001ZM7.625 8.20001C7.45 8.20001 7.3 8.07501 7.25 7.90001C7.2 7.70001 7.325 7.50001 7.525 7.45001L9.9 6.92501C10.1 6.87501 10.3 7.00001 10.35 7.20001C10.4 7.40001 10.275 7.60001 10.075 7.65001L7.7 8.17501C7.675 8.20001 7.65 8.20001 7.625 8.20001Z" fill="#8E8E8E"/>
</g>
<defs>
<clipPath id="clip0_0_2286">
<rect width="12" height="12" fill="white"/>
</clipPath>
</defs>
</svg>
