<svg width="22" height="22" viewBox="0 0 22 22" fill="none" xmlns="http://www.w3.org/2000/svg">
<g id="Icons/Home" clip-path="url(#clip0_2_33)">
<path id="Vector" d="M20.7625 22H13.75C13.3834 22 13.0625 21.6792 13.0625 21.3125V15.675C13.0625 14.4833 12.1459 13.5667 10.9542 13.5667C9.76254 13.5667 8.84587 14.4833 8.84587 15.675V21.3125C8.84587 21.6792 8.52504 22 8.15837 22H1.14587C0.779207 22 0.458374 21.6792 0.458374 21.3125V10.5417C0.458374 10.3583 0.550041 10.175 0.641707 10.0375L10.4959 0.183331C10.7709 -0.0916687 11.1834 -0.0916687 11.4584 0.183331L21.3125 10.0375C21.4959 10.2208 21.5875 10.5417 21.45 10.7708C21.45 10.8167 21.4042 10.8167 21.4042 10.8625V21.3125C21.45 21.6792 21.1292 22 20.7625 22ZM14.4375 20.625H20.075V10.725L11 1.65L1.83337 10.8167V20.625H7.47087V15.675C7.47087 13.7042 8.98337 12.1917 10.9542 12.1917C12.925 12.1917 14.4375 13.7042 14.4375 15.675V20.625Z" fill="#262626"/>
</g>
<defs>
<clipPath id="clip0_2_33">
<rect width="22" height="22" fill="white"/>
</clipPath>
</defs>
</svg>
